<mxfile host="app.diagrams.net" modified="2023-04-04T00:26:08.560Z" agent="Mozilla/5.0 (Macintosh; Intel Mac OS X 10_15_7) AppleWebKit/537.36 (KHTML, like Gecko) Chrome/111.0.0.0 Safari/537.36" etag="UcW4H5vqn8aJE41YsTG1" version="21.1.4" type="github">
  <diagram name="Page-1" id="b520641d-4fe3-3701-9064-5fc419738815">
    <mxGraphModel dx="954" dy="648" grid="1" gridSize="10" guides="1" tooltips="1" connect="1" arrows="1" fold="1" page="1" pageScale="1" pageWidth="1100" pageHeight="850" background="none" math="0" shadow="0">
      <root>
        <mxCell id="0" />
        <mxCell id="1" parent="0" />
        <mxCell id="21ea969265ad0168-6" value="Abe_Setup(λ)" style="swimlane;html=1;fontStyle=0;childLayout=stackLayout;horizontal=1;startSize=26;fillColor=#e0e0e0;horizontalStack=0;resizeParent=1;resizeLast=0;collapsible=1;marginBottom=0;swimlaneFillColor=#ffffff;align=center;rounded=1;shadow=0;comic=0;labelBackgroundColor=none;strokeWidth=1;fontFamily=Verdana;fontSize=12" parent="1" vertex="1">
          <mxGeometry x="160" y="74" width="210" height="136" as="geometry" />
        </mxCell>
        <mxCell id="21ea969265ad0168-9" value="G1, G2, GT, p, g = bilinear_group(λ)&amp;nbsp;&lt;br&gt;    α = random()&lt;br&gt;    PK, MK = g^α, α&lt;br&gt;for y in S:&lt;br&gt;        y_i = random()&lt;br&gt;        MPK[y], MSK[y] = g^y_i, y_i&lt;br&gt;    return MPK, MSK" style="text;html=1;strokeColor=none;fillColor=none;spacingLeft=4;spacingRight=4;whiteSpace=wrap;overflow=hidden;rotatable=0;points=[[0,0.5],[1,0.5]];portConstraint=eastwest;" parent="21ea969265ad0168-6" vertex="1">
          <mxGeometry y="26" width="210" height="104" as="geometry" />
        </mxCell>
        <mxCell id="jYu4rFqGju_bj6XHB738-4" style="edgeStyle=orthogonalEdgeStyle;rounded=0;orthogonalLoop=1;jettySize=auto;html=1;" edge="1" parent="1" source="21ea969265ad0168-10">
          <mxGeometry relative="1" as="geometry">
            <mxPoint x="660" y="300" as="targetPoint" />
          </mxGeometry>
        </mxCell>
        <mxCell id="21ea969265ad0168-10" value="Abe_Keygen(ID, S, MSK):&amp;nbsp;" style="swimlane;html=1;fontStyle=0;childLayout=stackLayout;horizontal=1;startSize=26;fillColor=#e0e0e0;horizontalStack=0;resizeParent=1;resizeLast=0;collapsible=1;marginBottom=0;swimlaneFillColor=#ffffff;align=center;rounded=1;shadow=0;comic=0;labelBackgroundColor=none;strokeWidth=1;fontFamily=Verdana;fontSize=12" parent="1" vertex="1">
          <mxGeometry x="560" y="74" width="200" height="130" as="geometry">
            <mxRectangle x="560" y="74" width="190" height="30" as="alternateBounds" />
          </mxGeometry>
        </mxCell>
        <mxCell id="21ea969265ad0168-11" value="r = random()&lt;br&gt;for y_i in S:&lt;br&gt;        D[y_i] = g^r / (MSK[y_i] + y_i) ^ r&lt;br&gt;    SK = (ID, D)&lt;br&gt;    return SK" style="text;html=1;strokeColor=none;fillColor=none;spacingLeft=4;spacingRight=4;whiteSpace=wrap;overflow=hidden;rotatable=0;points=[[0,0.5],[1,0.5]];portConstraint=eastwest;" parent="21ea969265ad0168-10" vertex="1">
          <mxGeometry y="26" width="200" height="84" as="geometry" />
        </mxCell>
        <mxCell id="21ea969265ad0168-14" value="Abe_Encrypt(P, ω, MPK):&amp;nbsp;" style="swimlane;html=1;fontStyle=0;childLayout=stackLayout;horizontal=1;startSize=26;fillColor=#e0e0e0;horizontalStack=0;resizeParent=1;resizeLast=0;collapsible=1;marginBottom=0;swimlaneFillColor=#ffffff;align=center;rounded=1;shadow=0;comic=0;labelBackgroundColor=none;strokeWidth=1;fontFamily=Verdana;fontSize=12" parent="1" vertex="1">
          <mxGeometry x="170" y="346" width="190" height="124" as="geometry" />
        </mxCell>
        <mxCell id="21ea969265ad0168-15" value="&amp;nbsp;s = random()&lt;br&gt;    E1 = P^Hash(s)&lt;br&gt;    A = attributes_satisfy_policy(ω)&lt;br&gt;    E2 = g^s / (MPK[A]*PK)^s&lt;br&gt;    C = (A, E1, E2)&lt;br&gt;    return C" style="text;html=1;strokeColor=none;fillColor=none;spacingLeft=4;spacingRight=4;whiteSpace=wrap;overflow=hidden;rotatable=0;points=[[0,0.5],[1,0.5]];portConstraint=eastwest;" parent="21ea969265ad0168-14" vertex="1">
          <mxGeometry y="26" width="190" height="94" as="geometry" />
        </mxCell>
        <mxCell id="21ea969265ad0168-22" value="Abe_Decrypt(C, SK)" style="swimlane;html=1;fontStyle=0;childLayout=stackLayout;horizontal=1;startSize=26;fillColor=#e0e0e0;horizontalStack=0;resizeParent=1;resizeLast=0;collapsible=1;marginBottom=0;swimlaneFillColor=#ffffff;align=center;rounded=1;shadow=0;comic=0;labelBackgroundColor=none;strokeWidth=1;fontFamily=Verdana;fontSize=12" parent="1" vertex="1">
          <mxGeometry x="540" y="306" width="270" height="204" as="geometry" />
        </mxCell>
        <mxCell id="21ea969265ad0168-23" value="A, E1, E2 = C&lt;br/&gt;    D = SK[1]&lt;br/&gt;    A_intersect = [attr for attr in D if attr in A]&lt;br/&gt;    if not attributes_satisfy_policy(ω, A_intersect):&lt;br/&gt;        return fail&lt;br/&gt;    s = 1&lt;br/&gt;    for y_i in A_intersect:&lt;br/&gt;        s *= pairing(D[y_i], MPK[y_i])&lt;br/&gt;    s *= pairing(MK, E2 * PK)&lt;br/&gt;    P = E1 ^ Hash(s)&lt;br/&gt;    return P" style="text;html=1;strokeColor=none;fillColor=none;spacingLeft=4;spacingRight=4;whiteSpace=wrap;overflow=hidden;rotatable=0;points=[[0,0.5],[1,0.5]];portConstraint=eastwest;" parent="21ea969265ad0168-22" vertex="1">
          <mxGeometry y="26" width="270" height="174" as="geometry" />
        </mxCell>
        <mxCell id="21ea969265ad0168-36" style="edgeStyle=orthogonalEdgeStyle;html=1;labelBackgroundColor=none;startFill=0;startSize=8;endFill=1;endSize=8;fontFamily=Verdana;fontSize=12;" parent="1" source="21ea969265ad0168-6" target="21ea969265ad0168-14" edge="1">
          <mxGeometry relative="1" as="geometry" />
        </mxCell>
        <mxCell id="jYu4rFqGju_bj6XHB738-2" style="edgeStyle=orthogonalEdgeStyle;rounded=0;orthogonalLoop=1;jettySize=auto;html=1;entryX=0;entryY=0.619;entryDx=0;entryDy=0;entryPerimeter=0;" edge="1" parent="1" source="21ea969265ad0168-9" target="21ea969265ad0168-11">
          <mxGeometry relative="1" as="geometry" />
        </mxCell>
        <mxCell id="jYu4rFqGju_bj6XHB738-3" style="edgeStyle=orthogonalEdgeStyle;rounded=0;orthogonalLoop=1;jettySize=auto;html=1;" edge="1" parent="1" source="21ea969265ad0168-15" target="21ea969265ad0168-23">
          <mxGeometry relative="1" as="geometry" />
        </mxCell>
      </root>
    </mxGraphModel>
  </diagram>
</mxfile>
